<svg xmlns="http://www.w3.org/2000/svg" viewBox="0 0 256 256" role="img" aria-label="Aura logo">
  <defs>
    <linearGradient id="g1" x1="0" y1="0" x2="1" y2="1">
      <stop offset="0%" stop-color="#ef4444"/>
      <stop offset="100%" stop-color="#f97316"/>
    </linearGradient>
    <linearGradient id="g2" x1="0" y1="0" x2="1" y2="1">
      <stop offset="0%" stop-color="#facc15"/>
      <stop offset="100%" stop-color="#eab308"/>
    </linearGradient>
    <linearGradient id="g3" x1="0" y1="0" x2="1" y2="1">
      <stop offset="0%" stop-color="#22c55e"/>
      <stop offset="100%" stop-color="#16a34a"/>
    </linearGradient>
  </defs>

  <rect width="256" height="256" rx="36" fill="#0f172a"/>

  <path d="M58 138c6-35 23-62 50-79-7 22-6 45 1 67 4 13 5 27-4 45-18-8-36-18-47-33z" fill="url(#g1)"/>
  <path d="M98 155c8-38 28-67 58-84-8 24-7 49 1 72 4 13 6 26-4 43-22-7-40-17-55-31z" fill="url(#g2)"/>
  <path d="M137 168c10-31 30-54 61-68-9 19-10 38-5 57 3 11 3 21-3 35-22-4-39-11-53-24z" fill="url(#g3)"/>

  <text x="128" y="218" text-anchor="middle" font-size="42" font-family="Arial, Helvetica, sans-serif" font-weight="700" fill="#f8fafc">aura</text>
</svg>
